<svg id="Layer_1" data-name="Layer 1" xmlns="http://www.w3.org/2000/svg" width="64" height="64" viewBox="0 0 64 64">
    <defs>
        <style>.cls-1{fill:#5d757f;}</style>
    </defs>
    <title>resume</title>
    <path id="resume" class="cls-1"
          d="M51.71,17.29l-11-11A1,1,0,0,0,40,6H14a4,4,0,0,0-4,4V56a4,4,0,0,0,4,4H48a4,4,0,0,0,4-4V18A1,1,0,0,0,51.71,17.29ZM49.59,18H42a2,2,0,0,1-2-2V8.41ZM48,58H14a2,2,0,0,1-2-2V10a2,2,0,0,1,2-2H38v8a4,4,0,0,0,4,4h8V56A2,2,0,0,1,48,58ZM45,38H17a1,1,0,0,1,0-2H45A1,1,0,0,1,45,38Zm0,6H17a1,1,0,0,1,0-2H45A1,1,0,0,1,45,44Zm-6,6H17a1,1,0,0,1,0-2H39A1,1,0,0,1,39,50ZM26.22,24.79a5,5,0,1,0-6.44,0A7,7,0,0,0,16,31a1,1,0,0,0,2,0,5,5,0,0,1,10,0,1,1,0,0,0,2,0A7,7,0,0,0,26.22,24.79ZM23,18a3,3,0,1,1-3,3A3,3,0,0,1,23,18Z"/>
</svg>